<svg width="77" height="21" viewBox="0 0 77 21" fill="none" xmlns="http://www.w3.org/2000/svg">
<path fill-rule="evenodd" clip-rule="evenodd" d="M24.2501 21L29.9801 0.98999H23.1701L20.6201 13.23L17.5901 0.98999H13.0301L10.0001 13.23L7.42014 0.98999H0.640137L6.37014 21H12.7301L15.3101 9.65999L17.8901 21H24.2501ZM37.3001 21V0.98999H31.2401V21H37.3001ZM54.1901 21V15.72H46.6001V0.98999H40.5401V21H54.1901ZM65.5901 21C71.8601 21 76.5401 17.37 76.5401 10.98C76.5401 4.58999 71.8601 0.98999 65.5601 0.98999H56.6201V21H65.5901ZM65.5601 15.72H62.6801V6.26999H65.5901C68.8301 6.26999 70.3901 8.27999 70.3901 10.98C70.3901 13.5 68.5901 15.72 65.5601 15.72Z" fill="#C1B2B1"/>
</svg>
