<svg width="736" height="72" viewBox="0 0 736 72" fill="none" xmlns="http://www.w3.org/2000/svg">
<path d="M56.0463 57.8089H29.4656L24.769 70H0.786471L31.3642 0.0509069H54.5473L85.1251 70H60.7428L56.0463 57.8089ZM49.551 40.8212L42.7559 23.234L35.9609 40.8212H49.551ZM97.2221 0.0509069H131.697C139.491 0.0509069 146.353 1.4832 152.282 4.34778C158.278 7.14575 162.908 11.1761 166.172 16.439C169.503 21.7018 171.168 27.8973 171.168 35.0255C171.168 42.1536 169.503 48.3491 166.172 53.6119C162.908 58.8748 158.278 62.9385 152.282 65.8031C146.353 68.601 139.491 70 131.697 70H97.2221V0.0509069ZM130.698 51.6134C135.761 51.6134 139.791 50.1811 142.789 47.3165C145.853 44.3853 147.386 40.2883 147.386 35.0255C147.386 29.7626 145.853 25.6989 142.789 22.8343C139.791 19.9031 135.761 18.4375 130.698 18.4375H120.805V51.6134H130.698ZM260.321 0.0509069L230.742 70H207.559L177.981 0.0509069H203.362L220.05 40.9212L237.138 0.0509069H260.321ZM329.159 52.2129V70H271.001V0.0509069H327.86V17.838H294.184V26.032H323.763V43.0196H294.184V52.2129H329.159ZM415.52 0.0509069V70H396.134L369.554 38.2231V70H346.571V0.0509069H365.956L392.537 31.8278V0.0509069H415.52ZM450.405 18.3376H429.92V0.0509069H494.473V18.3376H473.988V70H450.405V18.3376ZM541.432 71.5988C530.706 71.5988 522.346 68.7009 516.35 62.9052C510.354 57.1094 507.357 48.982 507.357 38.5229V0.0509069H530.939V37.8234C530.939 42.953 531.839 46.6836 533.637 49.0153C535.503 51.3469 538.167 52.5127 541.632 52.5127C545.096 52.5127 547.727 51.3469 549.526 49.0153C551.391 46.6836 552.324 42.953 552.324 37.8234V0.0509069H575.507V38.5229C575.507 48.982 572.509 57.1094 566.513 62.9052C560.518 68.7009 552.157 71.5988 541.432 71.5988ZM624.629 52.4128H618.233V70H594.65V0.0509069H628.326C634.788 0.0509069 640.417 1.1168 645.214 3.24858C650.01 5.38036 653.707 8.4448 656.305 12.4419C658.904 16.439 660.203 21.1023 660.203 26.4317C660.203 31.4281 659.07 35.7916 656.805 39.5222C654.54 43.2528 651.276 46.2173 647.012 48.4157L661.702 70H636.52L624.629 52.4128ZM636.42 26.4317C636.42 23.8336 635.621 21.8351 634.022 20.4361C632.423 18.9705 630.025 18.2377 626.827 18.2377H618.233V34.6257H626.827C630.025 34.6257 632.423 33.9263 634.022 32.5273C635.621 31.0617 636.42 29.0298 636.42 26.4317ZM735.599 52.2129V70H677.441V0.0509069H734.3V17.838H700.624V26.032H730.203V43.0196H700.624V52.2129H735.599Z" fill="white"/>
</svg>
