<svg width="250" height="70" viewBox="0 0 250 70" fill="none" xmlns="http://www.w3.org/2000/svg">
<rect width="250" height="70" rx="35" fill="white" fill-opacity="0.1"/>
<rect x="1" y="1" width="248" height="68" rx="34" stroke="white" stroke-opacity="0.8" stroke-width="2"/>
<path d="M63.175 32.25H64.95V38.925C64.1333 39.6417 63.1667 40.1917 62.05 40.575C60.9333 40.9583 59.7583 41.15 58.525 41.15C56.775 41.15 55.2 40.7667 53.8 40C52.4 39.2333 51.3 38.175 50.5 36.825C49.7 35.4583 49.3 33.9333 49.3 32.25C49.3 30.5667 49.7 29.05 50.5 27.7C51.3 26.3333 52.4 25.2667 53.8 24.5C55.2 23.7333 56.7833 23.35 58.55 23.35C59.8833 23.35 61.1083 23.5667 62.225 24C63.3417 24.4167 64.2833 25.0417 65.05 25.875L63.9 27.05C62.5167 25.6833 60.7583 25 58.625 25C57.2083 25 55.925 25.3167 54.775 25.95C53.6417 26.5667 52.75 27.4333 52.1 28.55C51.45 29.65 51.125 30.8833 51.125 32.25C51.125 33.6167 51.45 34.85 52.1 35.95C52.75 37.05 53.6417 37.9167 54.775 38.55C55.9083 39.1833 57.1833 39.5 58.6 39.5C60.4 39.5 61.925 39.05 63.175 38.15V32.25ZM81.2609 34.975H70.2609C70.3609 36.3417 70.8859 37.45 71.8359 38.3C72.7859 39.1333 73.9859 39.55 75.4359 39.55C76.2526 39.55 77.0026 39.4083 77.6859 39.125C78.3693 38.825 78.9609 38.3917 79.4609 37.825L80.4609 38.975C79.8776 39.675 79.1443 40.2083 78.2609 40.575C77.3943 40.9417 76.4359 41.125 75.3859 41.125C74.0359 41.125 72.8359 40.8417 71.7859 40.275C70.7526 39.6917 69.9443 38.8917 69.3609 37.875C68.7776 36.8583 68.4859 35.7083 68.4859 34.425C68.4859 33.1417 68.7609 31.9917 69.3109 30.975C69.8776 29.9583 70.6443 29.1667 71.6109 28.6C72.5943 28.0333 73.6943 27.75 74.9109 27.75C76.1276 27.75 77.2193 28.0333 78.1859 28.6C79.1526 29.1667 79.9109 29.9583 80.4609 30.975C81.0109 31.975 81.2859 33.125 81.2859 34.425L81.2609 34.975ZM74.9109 29.275C73.6443 29.275 72.5776 29.6833 71.7109 30.5C70.8609 31.3 70.3776 32.35 70.2609 33.65H79.5859C79.4693 32.35 78.9776 31.3 78.1109 30.5C77.2609 29.6833 76.1943 29.275 74.9109 29.275ZM91.8238 40.2C91.4905 40.5 91.0738 40.7333 90.5738 40.9C90.0905 41.05 89.5822 41.125 89.0488 41.125C87.8155 41.125 86.8655 40.7917 86.1988 40.125C85.5322 39.4583 85.1988 38.5167 85.1988 37.3V29.35H82.8488V27.85H85.1988V24.975H86.9738V27.85H90.9738V29.35H86.9738V37.2C86.9738 37.9833 87.1655 38.5833 87.5488 39C87.9488 39.4 88.5155 39.6 89.2488 39.6C89.6155 39.6 89.9655 39.5417 90.2988 39.425C90.6488 39.3083 90.9488 39.1417 91.1988 38.925L91.8238 40.2ZM101.598 27.85H103.373V41H101.598V27.85ZM102.498 24.975C102.131 24.975 101.823 24.85 101.573 24.6C101.323 24.35 101.198 24.05 101.198 23.7C101.198 23.3667 101.323 23.075 101.573 22.825C101.823 22.575 102.131 22.45 102.498 22.45C102.865 22.45 103.173 22.575 103.423 22.825C103.673 23.0583 103.798 23.3417 103.798 23.675C103.798 24.0417 103.673 24.35 103.423 24.6C103.173 24.85 102.865 24.975 102.498 24.975ZM115.012 27.75C116.662 27.75 117.97 28.2333 118.937 29.2C119.92 30.15 120.412 31.5417 120.412 33.375V41H118.637V33.55C118.637 32.1833 118.295 31.1417 117.612 30.425C116.929 29.7083 115.954 29.35 114.687 29.35C113.27 29.35 112.145 29.775 111.312 30.625C110.495 31.4583 110.087 32.6167 110.087 34.1V41H108.312V27.85H110.012V30.275C110.495 29.475 111.162 28.8583 112.012 28.425C112.879 27.975 113.879 27.75 115.012 27.75ZM128.756 41.125C127.689 41.125 126.664 40.975 125.681 40.675C124.714 40.3583 123.956 39.9667 123.406 39.5L124.206 38.1C124.756 38.5333 125.448 38.8917 126.281 39.175C127.114 39.4417 127.981 39.575 128.881 39.575C130.081 39.575 130.964 39.3917 131.531 39.025C132.114 38.6417 132.406 38.1083 132.406 37.425C132.406 36.9417 132.248 36.5667 131.931 36.3C131.614 36.0167 131.214 35.8083 130.731 35.675C130.248 35.525 129.606 35.3833 128.806 35.25C127.739 35.05 126.881 34.85 126.231 34.65C125.581 34.4333 125.023 34.075 124.556 33.575C124.106 33.075 123.881 32.3833 123.881 31.5C123.881 30.4 124.339 29.5 125.256 28.8C126.173 28.1 127.448 27.75 129.081 27.75C129.931 27.75 130.781 27.8667 131.631 28.1C132.481 28.3167 133.181 28.6083 133.731 28.975L132.956 30.4C131.873 29.65 130.581 29.275 129.081 29.275C127.948 29.275 127.089 29.475 126.506 29.875C125.939 30.275 125.656 30.8 125.656 31.45C125.656 31.95 125.814 32.35 126.131 32.65C126.464 32.95 126.873 33.175 127.356 33.325C127.839 33.4583 128.506 33.6 129.356 33.75C130.406 33.95 131.248 34.15 131.881 34.35C132.514 34.55 133.056 34.8917 133.506 35.375C133.956 35.8583 134.181 36.525 134.181 37.375C134.181 38.525 133.698 39.4417 132.731 40.125C131.781 40.7917 130.456 41.125 128.756 41.125ZM144.237 27.75C145.471 27.75 146.587 28.0333 147.587 28.6C148.587 29.15 149.371 29.9333 149.937 30.95C150.504 31.9667 150.787 33.125 150.787 34.425C150.787 35.7417 150.504 36.9083 149.937 37.925C149.371 38.9417 148.587 39.7333 147.587 40.3C146.604 40.85 145.487 41.125 144.237 41.125C143.171 41.125 142.204 40.9083 141.337 40.475C140.487 40.025 139.787 39.375 139.237 38.525V45.85H137.462V27.85H139.162V30.45C139.696 29.5833 140.396 28.9167 141.262 28.45C142.146 27.9833 143.137 27.75 144.237 27.75ZM144.112 39.55C145.029 39.55 145.862 39.3417 146.612 38.925C147.362 38.4917 147.946 37.8833 148.362 37.1C148.796 36.3167 149.012 35.425 149.012 34.425C149.012 33.425 148.796 32.5417 148.362 31.775C147.946 30.9917 147.362 30.3833 146.612 29.95C145.862 29.5167 145.029 29.3 144.112 29.3C143.179 29.3 142.337 29.5167 141.587 29.95C140.854 30.3833 140.271 30.9917 139.837 31.775C139.421 32.5417 139.212 33.425 139.212 34.425C139.212 35.425 139.421 36.3167 139.837 37.1C140.271 37.8833 140.854 38.4917 141.587 38.925C142.337 39.3417 143.179 39.55 144.112 39.55ZM154.406 27.85H156.181V41H154.406V27.85ZM155.306 24.975C154.939 24.975 154.631 24.85 154.381 24.6C154.131 24.35 154.006 24.05 154.006 23.7C154.006 23.3667 154.131 23.075 154.381 22.825C154.631 22.575 154.939 22.45 155.306 22.45C155.672 22.45 155.981 22.575 156.231 22.825C156.481 23.0583 156.606 23.3417 156.606 23.675C156.606 24.0417 156.481 24.35 156.231 24.6C155.981 24.85 155.672 24.975 155.306 24.975ZM162.82 30.425C163.236 29.5417 163.853 28.875 164.67 28.425C165.503 27.975 166.528 27.75 167.745 27.75V29.475L167.32 29.45C165.936 29.45 164.853 29.875 164.07 30.725C163.286 31.575 162.895 32.7667 162.895 34.3V41H161.12V27.85H162.82V30.425ZM182.286 34.975H171.286C171.386 36.3417 171.911 37.45 172.861 38.3C173.811 39.1333 175.011 39.55 176.461 39.55C177.278 39.55 178.028 39.4083 178.711 39.125C179.395 38.825 179.986 38.3917 180.486 37.825L181.486 38.975C180.903 39.675 180.17 40.2083 179.286 40.575C178.42 40.9417 177.461 41.125 176.411 41.125C175.061 41.125 173.861 40.8417 172.811 40.275C171.778 39.6917 170.97 38.8917 170.386 37.875C169.803 36.8583 169.511 35.7083 169.511 34.425C169.511 33.1417 169.786 31.9917 170.336 30.975C170.903 29.9583 171.67 29.1667 172.636 28.6C173.62 28.0333 174.72 27.75 175.936 27.75C177.153 27.75 178.245 28.0333 179.211 28.6C180.178 29.1667 180.936 29.9583 181.486 30.975C182.036 31.975 182.311 33.125 182.311 34.425L182.286 34.975ZM175.936 29.275C174.67 29.275 173.603 29.6833 172.736 30.5C171.886 31.3 171.403 32.35 171.286 33.65H180.611C180.495 32.35 180.003 31.3 179.136 30.5C178.286 29.6833 177.22 29.275 175.936 29.275ZM197.924 22.45V41H196.224V38.4C195.691 39.2833 194.983 39.9583 194.099 40.425C193.233 40.8917 192.249 41.125 191.149 41.125C189.916 41.125 188.799 40.8417 187.799 40.275C186.799 39.7083 186.016 38.9167 185.449 37.9C184.883 36.8833 184.599 35.725 184.599 34.425C184.599 33.125 184.883 31.9667 185.449 30.95C186.016 29.9333 186.799 29.15 187.799 28.6C188.799 28.0333 189.916 27.75 191.149 27.75C192.216 27.75 193.174 27.975 194.024 28.425C194.891 28.8583 195.599 29.5 196.149 30.35V22.45H197.924ZM191.299 39.55C192.216 39.55 193.041 39.3417 193.774 38.925C194.524 38.4917 195.108 37.8833 195.524 37.1C195.958 36.3167 196.174 35.425 196.174 34.425C196.174 33.425 195.958 32.5333 195.524 31.75C195.108 30.9667 194.524 30.3667 193.774 29.95C193.041 29.5167 192.216 29.3 191.299 29.3C190.366 29.3 189.524 29.5167 188.774 29.95C188.041 30.3667 187.458 30.9667 187.024 31.75C186.608 32.5333 186.399 33.425 186.399 34.425C186.399 35.425 186.608 36.3167 187.024 37.1C187.458 37.8833 188.041 38.4917 188.774 38.925C189.524 39.3417 190.366 39.55 191.299 39.55Z" fill="white"/>
</svg>
