<svg width="397" height="142" viewBox="0 0 397 142" fill="none" xmlns="http://www.w3.org/2000/svg">
<path d="M4.073 1.7H25.077V64H4.073V1.7ZM90.8132 64L90.6352 35.609L77.1072 58.393H67.8512L54.3232 36.588V64H35.1882V1.7H52.4542L72.7462 34.897L92.5042 1.7H109.77L109.948 64H90.8132ZM150.096 1.7C155.852 1.7 160.865 2.64933 165.137 4.548C169.409 6.44666 172.702 9.176 175.016 12.736C177.33 16.296 178.487 20.4493 178.487 25.196C178.487 29.9427 177.33 34.096 175.016 37.656C172.702 41.216 169.409 43.9453 165.137 45.844C160.865 47.7427 155.852 48.692 150.096 48.692H141.107V64H120.103V1.7H150.096ZM148.761 32.494C151.609 32.494 153.745 31.871 155.169 30.625C156.593 29.3197 157.305 27.51 157.305 25.196C157.305 22.882 156.593 21.102 155.169 19.856C153.745 18.5507 151.609 17.898 148.761 17.898H141.107V32.494H148.761ZM212.076 48.336H206.38V64H185.376V1.7H215.369C221.124 1.7 226.138 2.64933 230.41 4.548C234.682 6.44666 237.975 9.176 240.289 12.736C242.603 16.296 243.76 20.4493 243.76 25.196C243.76 29.646 242.751 33.5323 240.734 36.855C238.716 40.1777 235.809 42.818 232.012 44.776L245.095 64H222.667L212.076 48.336ZM222.578 25.196C222.578 22.882 221.866 21.102 220.442 19.856C219.018 18.5507 216.882 17.898 214.034 17.898H206.38V32.494H214.034C216.882 32.494 219.018 31.871 220.442 30.625C221.866 29.3197 222.578 27.51 222.578 25.196ZM303.489 48.158V64H251.691V1.7H302.332V17.542H272.339V24.84H298.683V39.97H272.339V48.158H303.489ZM334.804 65.424C329.642 65.424 324.599 64.8603 319.674 63.733C314.809 62.5463 310.804 60.974 307.659 59.016L314.423 43.708C317.39 45.4287 320.712 46.823 324.391 47.891C328.07 48.8997 331.6 49.404 334.982 49.404C337.889 49.404 339.966 49.137 341.212 48.603C342.458 48.0097 343.081 47.1493 343.081 46.022C343.081 44.7167 342.25 43.7377 340.589 43.085C338.987 42.4323 336.317 41.7203 332.579 40.949C327.773 39.9403 323.768 38.8723 320.564 37.745C317.36 36.5583 314.571 34.6597 312.198 32.049C309.825 29.379 308.638 25.7893 308.638 21.28C308.638 17.364 309.736 13.804 311.931 10.6C314.126 7.396 317.39 4.87433 321.721 3.03499C326.112 1.19566 331.422 0.275998 337.652 0.275998C341.924 0.275998 346.107 0.750664 350.201 1.7C354.354 2.58999 358.003 3.925 361.148 5.705L354.829 20.924C348.718 17.8387 342.933 16.296 337.474 16.296C332.075 16.296 329.375 17.6013 329.375 20.212C329.375 21.458 330.176 22.4073 331.778 23.06C333.38 23.6533 336.02 24.306 339.699 25.018C344.446 25.908 348.451 26.9463 351.714 28.133C354.977 29.2603 357.796 31.1293 360.169 33.74C362.602 36.3507 363.818 39.9107 363.818 44.42C363.818 48.336 362.72 51.896 360.525 55.1C358.33 58.2447 355.037 60.7663 350.646 62.665C346.315 64.5043 341.034 65.424 334.804 65.424ZM369.869 30.714H396.569V45.844H369.869V30.714ZM27.302 141.424C22.14 141.424 17.0967 140.86 12.172 139.733C7.30667 138.546 3.30167 136.974 0.157 135.016L6.921 119.708C9.88767 121.429 13.2103 122.823 16.889 123.891C20.5677 124.9 24.098 125.404 27.48 125.404C30.3873 125.404 32.464 125.137 33.71 124.603C34.956 124.01 35.579 123.149 35.579 122.022C35.579 120.717 34.7483 119.738 33.087 119.085C31.485 118.432 28.815 117.72 25.077 116.949C20.271 115.94 16.266 114.872 13.062 113.745C9.858 112.558 7.06933 110.66 4.696 108.049C2.32267 105.379 1.136 101.789 1.136 97.28C1.136 93.364 2.23367 89.804 4.429 86.6C6.62433 83.396 9.88767 80.8743 14.219 79.035C18.6097 77.1957 23.92 76.276 30.15 76.276C34.422 76.276 38.605 76.7507 42.699 77.7C46.8523 78.59 50.5013 79.925 53.646 81.705L47.327 96.924C41.2157 93.8387 35.4307 92.296 29.972 92.296C24.5727 92.296 21.873 93.6013 21.873 96.212C21.873 97.458 22.674 98.4073 24.276 99.06C25.878 99.6533 28.5183 100.306 32.197 101.018C36.9437 101.908 40.9487 102.946 44.212 104.133C47.4753 105.26 50.2937 107.129 52.667 109.74C55.0997 112.351 56.316 115.911 56.316 120.42C56.316 124.336 55.2183 127.896 53.023 131.1C50.8277 134.245 47.5347 136.766 43.144 138.665C38.8127 140.504 33.532 141.424 27.302 141.424ZM62.5662 77.7H83.5702V140H62.5662V77.7ZM160.253 77.7L133.909 140H113.261L86.9174 77.7H109.523L124.386 114.101L139.605 77.7H160.253ZM214.142 124.158V140H162.344V77.7H212.985V93.542H182.992V100.84H209.336V115.97H182.992V124.158H214.142Z" fill="#4E4E4E"/>
</svg>
