<svg width="291" height="24" viewBox="0 0 291 24" fill="none" xmlns="http://www.w3.org/2000/svg">
<path d="M9.39 23.36C7.73 23.36 6.12 23.14 4.56 22.7C3.02 22.24 1.78 21.65 0.84 20.93L2.49 17.27C3.39 17.93 4.46 18.46 5.7 18.86C6.94 19.26 8.18 19.46 9.42 19.46C10.8 19.46 11.82 19.26 12.48 18.86C13.14 18.44 13.47 17.89 13.47 17.21C13.47 16.71 13.27 16.3 12.87 15.98C12.49 15.64 11.99 15.37 11.37 15.17C10.77 14.97 9.95 14.75 8.91 14.51C7.31 14.13 6 13.75 4.98 13.37C3.96 12.99 3.08 12.38 2.34 11.54C1.62 10.7 1.26 9.58 1.26 8.18C1.26 6.96 1.59 5.86 2.25 4.88C2.91 3.88 3.9 3.09 5.22 2.51C6.56 1.93 8.19 1.64 10.11 1.64C11.45 1.64 12.76 1.8 14.04 2.12C15.32 2.44 16.44 2.9 17.4 3.5L15.9 7.19C13.96 6.09 12.02 5.54 10.08 5.54C8.72 5.54 7.71 5.76 7.05 6.2C6.41 6.64 6.09 7.22 6.09 7.94C6.09 8.66 6.46 9.2 7.2 9.56C7.96 9.9 9.11 10.24 10.65 10.58C12.25 10.96 13.56 11.34 14.58 11.72C15.6 12.1 16.47 12.7 17.19 13.52C17.93 14.34 18.3 15.45 18.3 16.85C18.3 18.05 17.96 19.15 17.28 20.15C16.62 21.13 15.62 21.91 14.28 22.49C12.94 23.07 11.31 23.36 9.39 23.36ZM31.1009 6.62C33.1009 6.62 34.7109 7.22 35.9309 8.42C37.1709 9.62 37.7909 11.4 37.7909 13.76V23H33.1109V14.48C33.1109 13.2 32.8309 12.25 32.2709 11.63C31.7109 10.99 30.9009 10.67 29.8409 10.67C28.6609 10.67 27.7209 11.04 27.0209 11.78C26.3209 12.5 25.9709 13.58 25.9709 15.02V23H21.2909V0.739999H25.9709V8.54C26.5909 7.92 27.3409 7.45 28.2209 7.13C29.1009 6.79 30.0609 6.62 31.1009 6.62ZM49.8888 23.24C48.1888 23.24 46.6588 22.89 45.2988 22.19C43.9588 21.47 42.9088 20.48 42.1488 19.22C41.3888 17.96 41.0088 16.53 41.0088 14.93C41.0088 13.33 41.3888 11.9 42.1488 10.64C42.9088 9.38 43.9588 8.4 45.2988 7.7C46.6588 6.98 48.1888 6.62 49.8888 6.62C51.5888 6.62 53.1088 6.98 54.4488 7.7C55.7888 8.4 56.8388 9.38 57.5988 10.64C58.3588 11.9 58.7388 13.33 58.7388 14.93C58.7388 16.53 58.3588 17.96 57.5988 19.22C56.8388 20.48 55.7888 21.47 54.4488 22.19C53.1088 22.89 51.5888 23.24 49.8888 23.24ZM49.8888 19.4C51.0888 19.4 52.0688 19 52.8288 18.2C53.6088 17.38 53.9988 16.29 53.9988 14.93C53.9988 13.57 53.6088 12.49 52.8288 11.69C52.0688 10.87 51.0888 10.46 49.8888 10.46C48.6888 10.46 47.6988 10.87 46.9188 11.69C46.1388 12.49 45.7488 13.57 45.7488 14.93C45.7488 16.29 46.1388 17.38 46.9188 18.2C47.6988 19 48.6888 19.4 49.8888 19.4ZM72.277 22.22C71.817 22.56 71.247 22.82 70.567 23C69.907 23.16 69.207 23.24 68.467 23.24C66.547 23.24 65.057 22.75 63.997 21.77C62.957 20.79 62.437 19.35 62.437 17.45V10.82H59.947V7.22H62.437V3.29H67.117V7.22H71.137V10.82H67.117V17.39C67.117 18.07 67.287 18.6 67.627 18.98C67.987 19.34 68.487 19.52 69.127 19.52C69.867 19.52 70.497 19.32 71.017 18.92L72.277 22.22ZM80.3341 23.24C78.9941 23.24 77.6841 23.08 76.4041 22.76C75.1241 22.42 74.1041 22 73.3441 21.5L74.9041 18.14C75.6241 18.6 76.4941 18.98 77.5141 19.28C78.5341 19.56 79.5341 19.7 80.5141 19.7C82.4941 19.7 83.4841 19.21 83.4841 18.23C83.4841 17.77 83.2141 17.44 82.6741 17.24C82.1341 17.04 81.3041 16.87 80.1841 16.73C78.8641 16.53 77.7741 16.3 76.9141 16.04C76.0541 15.78 75.3041 15.32 74.6641 14.66C74.0441 14 73.7341 13.06 73.7341 11.84C73.7341 10.82 74.0241 9.92 74.6041 9.14C75.2041 8.34 76.0641 7.72 77.1841 7.28C78.3241 6.84 79.6641 6.62 81.2041 6.62C82.3441 6.62 83.4741 6.75 84.5941 7.01C85.7341 7.25 86.6741 7.59 87.4141 8.03L85.8541 11.36C84.4341 10.56 82.8841 10.16 81.2041 10.16C80.2041 10.16 79.4541 10.3 78.9541 10.58C78.4541 10.86 78.2041 11.22 78.2041 11.66C78.2041 12.16 78.4741 12.51 79.0141 12.71C79.5541 12.91 80.4141 13.1 81.5941 13.28C82.9141 13.5 83.9941 13.74 84.8341 14C85.6741 14.24 86.4041 14.69 87.0241 15.35C87.6441 16.01 87.9541 16.93 87.9541 18.11C87.9541 19.11 87.6541 20 87.0541 20.78C86.4541 21.56 85.5741 22.17 84.4141 22.61C83.2741 23.03 81.9141 23.24 80.3341 23.24ZM107.018 23.24C105.318 23.24 103.788 22.89 102.428 22.19C101.088 21.47 100.038 20.48 99.2777 19.22C98.5177 17.96 98.1377 16.53 98.1377 14.93C98.1377 13.33 98.5177 11.9 99.2777 10.64C100.038 9.38 101.088 8.4 102.428 7.7C103.788 6.98 105.318 6.62 107.018 6.62C108.718 6.62 110.238 6.98 111.578 7.7C112.918 8.4 113.968 9.38 114.728 10.64C115.488 11.9 115.868 13.33 115.868 14.93C115.868 16.53 115.488 17.96 114.728 19.22C113.968 20.48 112.918 21.47 111.578 22.19C110.238 22.89 108.718 23.24 107.018 23.24ZM107.018 19.4C108.218 19.4 109.198 19 109.958 18.2C110.738 17.38 111.128 16.29 111.128 14.93C111.128 13.57 110.738 12.49 109.958 11.69C109.198 10.87 108.218 10.46 107.018 10.46C105.818 10.46 104.828 10.87 104.048 11.69C103.268 12.49 102.878 13.57 102.878 14.93C102.878 16.29 103.268 17.38 104.048 18.2C104.828 19 105.818 19.4 107.018 19.4ZM124.126 7.22H128.266V10.82H124.246V23H119.566V10.82H117.076V7.22H119.566V6.5C119.566 4.66 120.106 3.2 121.186 2.12C122.286 1.04 123.826 0.499998 125.806 0.499998C126.506 0.499998 127.166 0.579998 127.786 0.739999C128.426 0.879999 128.956 1.09 129.376 1.37L128.146 4.76C127.606 4.38 126.976 4.19 126.256 4.19C124.836 4.19 124.126 4.97 124.126 6.53V7.22ZM149.504 22.22C149.044 22.56 148.474 22.82 147.794 23C147.134 23.16 146.434 23.24 145.694 23.24C143.774 23.24 142.284 22.75 141.224 21.77C140.184 20.79 139.664 19.35 139.664 17.45V10.82H137.174V7.22H139.664V3.29H144.344V7.22H148.364V10.82H144.344V17.39C144.344 18.07 144.514 18.6 144.854 18.98C145.214 19.34 145.714 19.52 146.354 19.52C147.094 19.52 147.724 19.32 148.244 18.92L149.504 22.22ZM161.941 6.62C163.941 6.62 165.551 7.22 166.771 8.42C168.011 9.62 168.631 11.4 168.631 13.76V23H163.951V14.48C163.951 13.2 163.671 12.25 163.111 11.63C162.551 10.99 161.741 10.67 160.681 10.67C159.501 10.67 158.561 11.04 157.861 11.78C157.161 12.5 156.811 13.58 156.811 15.02V23H152.131V0.739999H156.811V8.54C157.431 7.92 158.181 7.45 159.061 7.13C159.941 6.79 160.901 6.62 161.941 6.62ZM188.859 14.99C188.859 15.05 188.829 15.47 188.769 16.25H176.559C176.779 17.25 177.299 18.04 178.119 18.62C178.939 19.2 179.959 19.49 181.179 19.49C182.019 19.49 182.759 19.37 183.399 19.13C184.059 18.87 184.669 18.47 185.229 17.93L187.719 20.63C186.199 22.37 183.979 23.24 181.059 23.24C179.239 23.24 177.629 22.89 176.229 22.19C174.829 21.47 173.749 20.48 172.989 19.22C172.229 17.96 171.849 16.53 171.849 14.93C171.849 13.35 172.219 11.93 172.959 10.67C173.719 9.39 174.749 8.4 176.049 7.7C177.369 6.98 178.839 6.62 180.459 6.62C182.039 6.62 183.469 6.96 184.749 7.64C186.029 8.32 187.029 9.3 187.749 10.58C188.489 11.84 188.859 13.31 188.859 14.99ZM180.489 10.16C179.429 10.16 178.539 10.46 177.819 11.06C177.099 11.66 176.659 12.48 176.499 13.52H184.449C184.289 12.5 183.849 11.69 183.129 11.09C182.409 10.47 181.529 10.16 180.489 10.16ZM226.391 6.86L220.541 23H216.041L212.411 12.98L208.661 23H204.161L198.341 6.86H202.751L206.561 17.78L210.521 6.86H214.481L218.321 17.78L222.251 6.86H226.391ZM243.937 14.99C243.937 15.05 243.907 15.47 243.847 16.25H231.637C231.857 17.25 232.377 18.04 233.197 18.62C234.017 19.2 235.037 19.49 236.257 19.49C237.097 19.49 237.837 19.37 238.477 19.13C239.137 18.87 239.747 18.47 240.307 17.93L242.797 20.63C241.277 22.37 239.057 23.24 236.137 23.24C234.317 23.24 232.707 22.89 231.307 22.19C229.907 21.47 228.827 20.48 228.067 19.22C227.307 17.96 226.927 16.53 226.927 14.93C226.927 13.35 227.297 11.93 228.037 10.67C228.797 9.39 229.827 8.4 231.127 7.7C232.447 6.98 233.917 6.62 235.537 6.62C237.117 6.62 238.547 6.96 239.827 7.64C241.107 8.32 242.107 9.3 242.827 10.58C243.567 11.84 243.937 13.31 243.937 14.99ZM235.567 10.16C234.507 10.16 233.617 10.46 232.897 11.06C232.177 11.66 231.737 12.48 231.577 13.52H239.527C239.367 12.5 238.927 11.69 238.207 11.09C237.487 10.47 236.607 10.16 235.567 10.16ZM262.863 14.99C262.863 15.05 262.833 15.47 262.773 16.25H250.563C250.783 17.25 251.303 18.04 252.123 18.62C252.943 19.2 253.963 19.49 255.183 19.49C256.023 19.49 256.763 19.37 257.403 19.13C258.063 18.87 258.673 18.47 259.233 17.93L261.723 20.63C260.203 22.37 257.983 23.24 255.063 23.24C253.243 23.24 251.633 22.89 250.233 22.19C248.833 21.47 247.753 20.48 246.993 19.22C246.233 17.96 245.853 16.53 245.853 14.93C245.853 13.35 246.223 11.93 246.963 10.67C247.723 9.39 248.753 8.4 250.053 7.7C251.373 6.98 252.843 6.62 254.463 6.62C256.043 6.62 257.473 6.96 258.753 7.64C260.033 8.32 261.033 9.3 261.753 10.58C262.493 11.84 262.863 13.31 262.863 14.99ZM254.493 10.16C253.433 10.16 252.543 10.46 251.823 11.06C251.103 11.66 250.663 12.48 250.503 13.52H258.453C258.293 12.5 257.853 11.69 257.133 11.09C256.413 10.47 255.533 10.16 254.493 10.16ZM272.908 16.67L270.658 18.89V23H265.978V0.739999H270.658V13.34L277.498 6.86H283.078L276.358 13.7L283.678 23H278.008L272.908 16.67ZM287.846 23.24C287.026 23.24 286.336 22.96 285.776 22.4C285.216 21.84 284.936 21.14 284.936 20.3C284.936 19.44 285.216 18.75 285.776 18.23C286.336 17.69 287.026 17.42 287.846 17.42C288.666 17.42 289.356 17.69 289.916 18.23C290.476 18.75 290.756 19.44 290.756 20.3C290.756 21.14 290.476 21.84 289.916 22.4C289.356 22.96 288.666 23.24 287.846 23.24Z" fill="#4E4E4E"/>
</svg>
